<?xml version="1.0" ?><!DOCTYPE svg  PUBLIC '-//W3C//DTD SVG 1.0//EN'  'http://www.w3.org/TR/2001/REC-SVG-20010904/DTD/svg10.dtd'><svg enable-background="new 0 0 512 512" height="512px" id="Layer_1" version="1.0" viewBox="0 0 512 512" width="512px" xml:space="preserve" xmlns="http://www.w3.org/2000/svg" xmlns:xlink="http://www.w3.org/1999/xlink"><path clip-rule="evenodd" d="M247.039,250.038l2.311-3.926l2.276-3.947l4.556,0.038l4.556-0.003  l2.245,3.964l2.28,3.944l-2.311,3.926l-2.276,3.947l-4.556-0.038l-4.556,0.003l-2.245-3.964L247.039,250.038z M246.139,244.242  l-2.389,3.927l-4.096,1.841l4.082,1.873l2.359,3.945l2.206,4.032l-0.454,4.468l3.663-2.599l4.596-0.07l4.595,0.105l3.643,2.627  l-0.419-4.471l2.237-4.015l2.389-3.927l4.096-1.841l-4.082-1.873l-2.358-3.945L264,240.287l0.453-4.468l-3.663,2.599l-4.596,0.07  l-4.595-0.105l-3.643-2.627l0.419,4.471L246.139,244.242z" fill="#697CA8" fill-rule="evenodd"/><path clip-rule="evenodd" d="M207.228,164.579l-20.886-53.949l-13.398-5.964l-1.646,14.572  L207.228,164.579z M179.295,115.764l4.32,1.564l4.92,14.583l-10.08-11.63L179.295,115.764z" fill="#697CA8" fill-rule="evenodd"/><path clip-rule="evenodd" d="M305.729,164.959l36.279-45.063l-1.534-14.585l-13.443,5.86  L305.729,164.959z M334.038,116.36l0.806,4.523l-10.169,11.552l5.032-14.545L334.038,116.36z" fill="#697CA8" fill-rule="evenodd"/><path clip-rule="evenodd" d="M354.651,250.453l57.165,8.887l11.864-8.621l-11.797-8.712  L354.651,250.453z M410.893,250.67l-3.514,2.959l-15.089-3.031l15.112-2.914L410.893,250.67z" fill="#697CA8" fill-rule="evenodd"/><path clip-rule="evenodd" d="M305.072,335.568l20.886,53.949l13.398,5.964l1.646-14.572  L305.072,335.568z M333.005,384.383l-4.319-1.564l-4.92-14.583l10.08,11.63L333.005,384.383z" fill="#697CA8" fill-rule="evenodd"/><path clip-rule="evenodd" d="M206.571,335.188l-36.279,45.063l1.534,14.585l13.443-5.86  L206.571,335.188z M178.262,383.787l-0.806-4.523l10.169-11.552l-5.032,14.545L178.262,383.787z" fill="#697CA8" fill-rule="evenodd"/><path clip-rule="evenodd" d="M157.649,249.694l-57.165-8.887l-11.864,8.621l11.797,8.712  L157.649,249.694z M101.407,249.477l3.514-2.959l15.089,3.031l-15.112,2.914L101.407,249.477z" fill="#697CA8" fill-rule="evenodd"/><path clip-rule="evenodd" d="M196.974,215.604l-15.394-5.598l1.342,13.292l9.411,8.997  l-0.512,8.129l-8.327-1.017l-36.928-33.609l-18.093,2.651l-6.111,13.971l41.379,27.296l-41.588,26.977l6.003,14.017l18.072,2.791  l37.186-33.323l8.335-0.952l0.449,8.133l-9.48,8.924l-1.445,13.281l15.437-5.479l-12.545,10.533l12.182,5.484l12.497-3.652  l6.784,4.508l-5.044,6.703l-47.57,15.177l-6.75,16.994l9.044,12.278l44.329-22.187l2.568,49.505l15.141,1.81l11.453-14.255  l-10.265-48.866l3.342-7.694l7.268,3.678l2.989,12.672l10.78,7.892l2.973-16.108l2.849,16.13l10.84-7.808l3.086-12.649l7.296-3.622  l3.283,7.72l-10.642,48.785l11.343,14.343l15.155-1.693l2.95-49.484l44.156,22.528l9.138-12.208l-6.619-17.046l-47.452-15.543  l-4.992-6.742l6.819-4.455l12.469,3.748l12.224-5.39l-12.463-10.629l15.394,5.598l-1.342-13.292l-9.411-8.997l0.511-8.129  l8.327,1.017l36.928,33.609l18.093-2.651l6.111-13.971l-41.379-27.296l41.588-26.977l-6.003-14.018l-18.072-2.791l-37.186,33.323  l-8.335,0.952l-0.449-8.133l9.48-8.924l1.445-13.281l-15.437,5.479l12.545-10.533l-12.182-5.484l-12.497,3.652l-6.784-4.508  l5.044-6.703l47.57-15.177l6.75-16.995l-9.044-12.278l-44.329,22.187l-2.568-49.505l-15.141-1.81L273.5,133.165l10.266,48.866  l-3.343,7.694l-7.268-3.678l-2.989-12.672l-10.78-7.892l-2.973,16.108l-2.849-16.13l-10.84,7.808l-3.086,12.649l-7.296,3.622  l-3.283-7.72l10.642-48.785l-11.343-14.343l-15.155,1.693l-2.949,49.484l-44.157-22.528l-9.138,12.208l6.619,17.046l47.452,15.543  l4.992,6.742l-6.819,4.455l-12.469-3.748l-12.224,5.39L196.974,215.604z M176.306,249.766l-40.499-34.427l1.734-1.203l45.114,35.655  l-45.388,35.306l-1.725-1.216L176.306,249.766z M215.962,319.067l-50.064,17.859l-0.175-2.103l53.435-21.242l7.882,56.96  l-1.916,0.886L215.962,319.067z M295.806,319.375l-9.565,52.286l-1.909-0.9l8.321-56.897l53.27,21.654l-0.191,2.102L295.806,319.375  z M335.995,250.381l40.499,34.427l-1.734,1.203l-45.114-35.655l45.387-35.306l1.725,1.216L335.995,250.381z M296.339,181.08  l50.064-17.859l0.175,2.103l-53.435,21.242l-7.882-56.96l1.916-0.886L296.339,181.08z M216.494,180.773l9.565-52.287l1.909,0.9  l-8.321,56.897l-53.27-21.654l0.191-2.102L216.494,180.773z M200.976,249.861l-4.064-17.413l-9.555-10.443l0.912-5.777l6.456,2.666  l3.742,12.888l18.626,18.141l-18.766,17.998l-3.842,12.858l-6.476,2.617l-0.868-5.784l9.635-10.369L200.976,249.861z   M228.379,297.749l-17.112-5.187l-13.822,3.053l-4.547-3.678l5.537-4.257l13.032,3.203l25.024-7.06l6.203,25.25l9.215,9.756  l-0.972,6.917l-5.443-2.141l-4.163-13.529L228.379,297.749z M283.553,297.962l-13.048,12.226l-4.267,13.496l-5.459,2.099  l-0.919-6.924l9.29-9.685l6.398-25.202l24.969,7.253l13.057-3.102l5.504,4.3l-4.575,3.644l-13.798-3.159L283.553,297.962z   M311.324,250.286l4.064,17.413l9.555,10.443l-0.912,5.777l-6.455-2.667l-3.742-12.888l-18.626-18.141l18.766-17.998l3.841-12.858  l6.476-2.617l0.868,5.784l-9.635,10.37L311.324,250.286z M283.921,202.398l17.112,5.187l13.822-3.053l4.547,3.679l-5.537,4.257  l-13.032-3.203l-25.024,7.06l-6.203-25.25l-9.215-9.756l0.972-6.917l5.443,2.141l4.163,13.529L283.921,202.398z M228.747,202.185  l13.048-12.226l4.267-13.496l5.459-2.098l0.919,6.924l-9.29,9.685l-6.398,25.202l-24.969-7.253l-13.056,3.102l-5.504-4.3  l4.575-3.643l13.798,3.159L228.747,202.185z M228.432,249.967l-25.135-18.35l-4.471-14.935l15.197-3.478l28.361,12.812l3.324-30.943  l10.699-11.339l10.611,11.421l3.085,30.967l28.459-12.593l15.169,3.596l-4.586,14.9l-25.276,18.155l25.135,18.35l4.471,14.935  l-15.197,3.478l-28.361-12.812l-3.324,30.943l-10.698,11.339l-10.611-11.421l-3.085-30.967l-28.459,12.593l-15.169-3.595l4.586-14.9  L228.432,249.967z" fill="#697CA8" fill-rule="evenodd"/></svg>